<svg width="24" height="24" xmlns="http://www.w3.org/2000/svg"><g class="layer"><path d="M6.81.22A.75.75 0 0 1 7.34 0h9.32c.2 0 .39.08.53.22l6.59 6.59c.14.14.22.33.22.53v9.32c0 .2-.08.39-.22.53l-6.59 6.59a.75.75 0 0 1-.53.22H7.34a.75.75 0 0 1-.53-.22L.22 17.19a.75.75 0 0 1-.22-.53V7.34c0-.2.08-.39.22-.53L6.81.22zm.84 1.28L1.5 7.65v8.7l6.15 6.15h8.7l6.15-6.15v-8.7L16.35 1.5h-8.7z" fill="#FAFAFB"/><path d="M6.97 6.97c.07-.07.15-.13.24-.16a.717.717 0 0 1 .58 0c.09.03.17.09.24.16L12 10.94l3.97-3.97c.07-.07.15-.13.24-.16a.717.717 0 0 1 .58 0c.09.03.17.09.24.16.07.07.13.15.16.24a.717.717 0 0 1 0 .58c-.03.09-.09.17-.16.24L13.06 12l3.97 3.97c.07.07.13.15.16.24a.717.717 0 0 1 0 .58c-.03.09-.09.17-.16.24-.07.07-.15.13-.24.16a.717.717 0 0 1-.58 0 .633.633 0 0 1-.24-.16L12 13.06l-3.97 3.97c-.07.07-.15.13-.24.16a.717.717 0 0 1-.58 0 .633.633 0 0 1-.24-.16.633.633 0 0 1-.16-.24.717.717 0 0 1 0-.58c.03-.09.09-.17.16-.24L10.94 12 6.97 8.03a.633.633 0 0 1-.16-.24.717.717 0 0 1 0-.58c.03-.09.09-.17.16-.24z" fill="#FAFAFB"/></g></svg>